<?xml version="1.0" standalone="no"?>
<!DOCTYPE svg PUBLIC "-//W3C//DTD SVG 20010904//EN"
 "http://www.w3.org/TR/2001/REC-SVG-20010904/DTD/svg10.dtd">
<svg version="1.0" xmlns="http://www.w3.org/2000/svg"
 width="100.000000pt" height="100.000000pt" viewBox="0 0 100.000000 100.000000"
 preserveAspectRatio="xMidYMid meet">

<g transform="translate(0.000000,100.000000) scale(0.100000,-0.100000)"
fill="#000000" stroke="none">
<path d="M432 878 c-7 -7 -12 -21 -12 -33 0 -18 -14 -23 -112 -45 l-113 -25
-3 -38 c-2 -26 1 -39 12 -43 14 -5 16 -40 16 -266 l0 -259 25 -24 24 -25 231
0 231 0 24 25 25 24 0 259 c0 222 2 261 15 266 9 3 15 19 15 41 0 42 -4 44
-137 71 -82 16 -93 21 -93 39 0 34 -20 45 -80 45 -31 0 -61 -5 -68 -12z m118
-33 c0 -11 -12 -15 -50 -15 -38 0 -50 4 -50 15 0 11 12 15 50 15 38 0 50 -4
50 -15z m98 -66 c53 -11 105 -23 115 -25 21 -6 23 -34 2 -34 -13 0 -15 -36
-15 -265 0 -252 -1 -266 -20 -285 -19 -19 -33 -20 -230 -20 -197 0 -211 1
-230 20 -19 19 -20 33 -20 285 0 229 -2 265 -15 265 -24 0 -17 29 8 35 210 51
265 54 405 24z"/>
</g>
</svg>
